<?xml version="1.0" encoding="UTF-8" standalone="no"?><!DOCTYPE svg PUBLIC "-//W3C//DTD SVG 1.1//EN" "http://www.w3.org/Graphics/SVG/1.1/DTD/svg11.dtd"><svg width="100%" height="100%" viewBox="0 0 2134 2134" version="1.1" xmlns="http://www.w3.org/2000/svg" xmlns:xlink="http://www.w3.org/1999/xlink" xml:space="preserve" xmlns:serif="http://www.serif.com/" style="fill-rule:evenodd;clip-rule:evenodd;stroke-linecap:round;stroke-linejoin:round;stroke-miterlimit:1.5;"><circle cx="1066.67" cy="1066.67" r="533.333" style="fill:none;stroke:#000;stroke-width:133.33px;"/><path d="M1066.88,850.052c0,-0.029 -0.023,-0.052 -0.052,-0.052l-0.104,0c-0.029,0 -0.052,0.023 -0.052,0.052l-0,216.563c-0,0.028 0.023,0.052 0.052,0.052l0.104,-0c0.029,-0 0.052,-0.024 0.052,-0.052l0,-216.563Z" style="fill:none;stroke:#000;stroke-width:133.33px;"/><g id="góra"><path d="M1067.08,368.001c0,-0.057 -0.046,-0.104 -0.104,-0.104l-0.208,0c-0.058,0 -0.104,0.047 -0.104,0.104l-0,115.554c-0,0.058 0.046,0.104 0.104,0.104l0.208,0c0.058,0 0.104,-0.046 0.104,-0.104l0,-115.554Z" style="stroke:#000;stroke-width:133.33px;"/><path d="M1124.65,367.653c0.057,0 0.104,-0.046 0.104,-0.104l0,-0.208c0,-0.058 -0.047,-0.104 -0.104,-0.104l-115.554,-0c-0.057,-0 -0.104,0.046 -0.104,0.104l-0,0.208c-0,0.058 0.047,0.104 0.104,0.104l115.554,0Z" style="stroke:#000;stroke-width:133.33px;"/></g><path d="M1390.08,507.708c0.042,-0.072 0.017,-0.164 -0.055,-0.205l-0.26,-0.15c-0.072,-0.042 -0.164,-0.017 -0.205,0.055l-56.61,98.052c-0.042,0.072 -0.017,0.164 0.055,0.205l0.26,0.15c0.071,0.042 0.163,0.017 0.205,-0.055l56.61,-98.052Z" style="stroke:#000;stroke-width:133.33px;"/></svg>